<?xml version="1.0" encoding="UTF-8" standalone="no"?><!DOCTYPE svg PUBLIC "-//W3C//DTD SVG 1.1//EN" "http://www.w3.org/Graphics/SVG/1.1/DTD/svg11.dtd"><svg xmlns="http://www.w3.org/2000/svg" xmlns:xlink="http://www.w3.org/1999/xlink"><symbol viewBox="0 0 1024 1024" id="apps"><title>apps</title><path d="M218 248.008v527.984C218 792.57 231.432 806 248.008 806h527.984C792.57 806 806 792.568 806 775.992V248.008C806 231.43 792.568 218 775.992 218H248.008C231.43 218 218 231.432 218 248.008zm-70 0C148 192.775 192.768 148 248.008 148h527.984C831.225 148 876 192.768 876 248.008v527.984C876 831.225 831.232 876 775.992 876H248.008C192.775 876 148 831.232 148 775.992V248.008z"/><path d="M278.16 278.263h207.5v207.5h-207.5zM278.16 538.993h207.5v207.5h-207.5zM539.095 278.263h207.5v207.5h-207.5z"/></symbol><symbol viewBox="0 0 1024 1024" id="bookmark"><title>bookmark</title><path d="M715.667 145H308.444c-44.794 0-81.037 36.65-81.037 81.444L227 878l285.056-122.167L797.11 878V226.444c0-44.794-36.65-81.444-81.443-81.444z"/></symbol><symbol viewBox="0 0 1024 1024" id="close"><path d="M810.7 273.5l-60.2-60.2L512 451.8 273.5 213.3l-60.2 60.2L451.8 512 213.3 750.5l60.2 60.2L512 572.2l238.5 238.5 60.2-60.2L572.2 512l238.5-238.5z"/></symbol><symbol viewBox="0 0 1024 1024" id="down"><title>Search</title><path d="M707.84 366.507L512 561.92 316.16 366.507 256 426.667l256 256 256-256-60.16-60.16z"/></symbol><symbol viewBox="0 544.2 595.3 297.6" id="economist"><path fill="#E3120B" d="M0 544.2h595.3v297.6H0z"/><path fill="#FFF" d="M276.1 622.8c-.3-8.4-2-9.5-14.7-9.5h-2.7v48.1c0 6.6 1.7 8.4 8.2 8.5l.2 2.3c-6.2-.1-10.8-.1-13.9-.1-3.1 0-8 0-14.4.1l.2-2.3c6.5-.2 8.2-1.9 8.2-8.5v-48.1H244c-13 0-14.8 1.2-14.9 9.5l-3.3-.2.3-13.6c12 .1 20.9.2 26.8.2 5.7 0 14.4-.1 25.9-.2l.3 13.6-3 .2zm44.7 49.1c-2.4 0-6 .2-10.9.3l.2-2.1c4.7-.7 5.1-1.6 5.2-9.4v-13.3c0-11.1-1.9-14.8-7.7-14.8-3.3 0-6.6 2-8 5.1-.5 1-.9 2.2-1.2 3.4-.1.4-.1.8-.1 1v18.7c0 7.8.5 8.7 5.2 9.4l.2 2.1c-4.9-.2-8.5-.3-11-.3-2.6 0-6.4.2-11.5.3l.2-2.1c5.9 0 6.7-1.2 6.8-9.4v-40.2c-.1-8.3-.9-9.4-6.8-9.4l-.2-2.1c8-.4 9.8-.7 17-2v27.3c4.7-5.2 8.6-7.2 13.8-7.2 8.6 0 13.4 5.5 13.4 15.5v18.2c.1 8.3.9 9.4 6.8 9.4l.2 2.1c-5.2-.3-9.1-.5-11.6-.5zm28-24.4c.3 13.4 5.2 20.9 13.3 20.9 4.8 0 8.9-2.2 13.2-7.2l1.3 2.4c-5.5 6.7-10.8 9.6-17.8 9.6-12.2 0-20.5-9-20.5-22.3 0-14.2 8.5-24 20.9-24 6.7 0 11.5 2.4 14.8 7.8 2.2 3.7 2.8 6.2 2.9 12.6l-28.1.2zm8.7-17.4c-5.3 0-8 4.4-8.9 14 8.1-.2 10.6-.3 18.7-1.2-1.1-8.6-4.3-12.8-9.8-12.8zM77.8 755.7c11 0 14.2-2.4 15.2-11.9l3.9.2-2.3 16.4-7.5.1-23.9-.2-16.2.1.3-2.6c7.1-.2 9-2.2 9-9.5v-46.1c0-7.3-1.9-9.2-9-9.5l-.3-2.6 15.1.2 23.9-.2 6.2.1.4 14.4-3.9.3c-.7-8.9-2.3-9.8-16.4-9.8h-2.2l-1 .1v26.5c1.9 0 3.3.1 4.2.1 1.6.1 3 .2 4.5.2 7.8 0 9.5-1.7 9.7-9.1h3.3c-.3 5.9-.3 9-.3 11.9 0 2.3 0 5.6.1 10.1h-3.1c-.4-7-2-8.4-9.5-8.5l-5.3-.1-3.7.2v20.6c.1 8.2.6 8.6 8.8 8.6zm54.5-42c-7.3 0-11.1 6.5-11.1 19.1 0 14.8 4.6 23.1 12.8 23.1 4.3 0 7.9-1.9 11.7-5.9l1.5 3.5c-5.6 5.8-10.2 8-16.6 8-12.8 0-21.3-10.1-21.3-25.3 0-15.8 8.9-25.9 22.9-25.9 3.7 0 7.5.7 13.4 2.3l.2 11.7-4.4.3c-1.6-8.9-3.4-10.9-9.1-10.9zm49.1 47.8c-14 0-23.3-9.4-23.8-23.7v-1.5c0-16.5 8.9-26 24.1-26 14.1 0 24.1 10.5 24.1 25.6 0 15.3-9.6 25.6-24.4 25.6zm-1.1-47.5c-7.2 0-10.8 6.2-10.8 18.3 0 1.5 0 2.9.2 4.4 1 14 5.6 21.5 13.1 21.5 7 0 11.2-7.3 11.2-19.6 0-14.5-5.7-24.6-13.7-24.6zm69.1 46.4l.2-2.3c5.2-.8 5.8-1.7 5.8-10.5l.1-6.2v-8.7c0-12.3-2.3-16.4-8.6-16.4-3.8 0-7 2-9 5.6-.8 1.5-1.5 3.8-1.5 4.8v20.8c.1 8.7.6 9.7 5.8 10.5l.3 2.3c-5.3-.2-19.2-.2-25 0l.2-2.3c6.5 0 7.5-1.3 7.5-10.5V724.9c0-9.1-1-10.3-7.5-10.4l-.2-2.3c8.7-.5 10.6-.8 18-2.3l.5 8.8c5.6-6.2 9.8-8.5 15.8-8.5 9.5 0 14.8 6.2 14.8 17.1V747.5c-.1.8-.1 1.6-.1 2.3 0 6.2 1.6 8.1 7.6 8.1l.2 2.3c-5.8 0-19.7 0-24.9.2zm57.4 1.1c-14 0-23.3-9.4-23.8-23.7v-1.5c0-16.5 8.9-26 24.1-26 14.1 0 24.1 10.5 24.1 25.6-.1 15.3-9.7 25.6-24.4 25.6zm-1.2-47.5c-7.1 0-10.8 6.2-10.8 18.3 0 1.5 0 2.9.2 4.4 1 14 5.6 21.5 13.1 21.5 7 0 11.2-7.3 11.2-19.6 0-14.5-5.7-24.6-13.7-24.6zm98.5 46.4l.2-2.3c5.2-.8 5.6-1.7 5.8-10.5V732.7c0-12.1-2.2-16.4-8.2-16.4-3.6 0-7.3 2.3-8.9 5.6-.5 1.2-1 2.3-1.3 3.7-.1.5-.2.9-.2 1v20.8c0 8.7.6 9.7 5.8 10.5l.2 2.3c-5.3-.2-18.1-.2-23.1 0l.2-2.3c5.2-.8 5.6-1.7 5.8-10.5V732.5c0-12.1-2.2-16.4-8.2-16.4-3.7 0-7 2.2-8.9 5.6-.8 1.6-1.5 3.8-1.5 4.8v20.8c.1 8.7.6 9.7 5.8 10.5l.2 2.3c-5.2-.2-19.1-.2-24.9 0l.2-2.3c6.5 0 7.5-1.3 7.5-10.5V724.7c0-9.1-1-10.3-7.5-10.4l-.2-2.3c8.7-.5 10.6-.8 18-2.3l.5 8.8c5.6-6.2 9.8-8.5 15.6-8.5 6.6 0 10.5 2.7 13.5 9.2 5.9-6.8 10.3-9.2 16.3-9.2 9.2 0 14.5 6.2 14.5 17.1V747.3c0 .8-.1 1.6-.1 2.3 0 6.2 1.7 8.1 7.6 8.1l.2 2.3c-6 .2-19.7.2-24.9.4zm47.5-.4c-2.9 0-7.3.2-13.3.4l.2-2.3c6.5 0 7.5-1.3 7.5-10.4l.1-6.2v-10.2l-.1-6.2c0-9.1-1-10.3-7.5-10.4l-.2-2.3c9-.6 11-.9 18.9-2.3v31.5l.1 6.2c0 9.2.9 10.4 7.5 10.4l.2 2.3c-6-.3-10.4-.5-13.4-.5zm-.4-59.7c-3.7 0-6.5-2.8-6.5-6.6 0-3.7 2.9-6.6 6.5-6.6s6.5 3 6.5 6.6c0 3.7-2.8 6.6-6.5 6.6zm41.7 13.4c-4.4 0-7.5 2.5-7.5 6.2 0 3.4 1.6 5.5 6.6 8.7 4.6 3 8.2 5.8 10.6 7.9 2.7 2.6 4.3 5.9 4.3 9.8 0 8.7-7.3 15.3-16.7 15.3-3.6 0-7-.8-13.3-2.8l-.4-9.9 5-.2c2.3 7.5 3.7 9 8.9 9 4.5 0 7.4-2.3 7.4-5.9 0-3.3-2-5.9-8.2-10.1-3.1-2.2-5.3-3.6-6.5-4.5-2.6-2-4.4-4.3-5.3-6.9-.6-1.5-.9-3.2-.9-5.3 0-8.9 6-14.6 15.2-14.6 3.4 0 5.3.3 13.3 2.2l.2 9.8-5 .2c-1.1-6.7-3.1-8.9-7.7-8.9zm49.9 42.7c1.6 0 3-.2 5.3-.9v2.8c-3.3 1.9-7.9 2.9-12.6 2.9-4.3 0-8.4-2.4-10.2-6-1.5-3-1.9-6-1.9-12.7v-25h-6.2v-4.4c7.7-.6 10.7-3.9 13-14.1h4.4v13.2H547l-1.3 5.3h-10.9v24c-.2 12.1 1.4 14.9 8 14.9z"/></symbol><symbol viewBox="0 0 1024 1024" id="economist-small"><path fill="#E3120B" d="M0 0h1024v1024H0z"/><path fill="#FFF" d="M341.6 723.4c40.1-.7 49.5-11.1 49.5-50.6V352.6c0-39.5-9.4-50.6-49.5-51.3v-29.1h325.5l7.4 110.9h-40.1c-14.7-52.7-23.4-68.6-66.8-68.6h-90.2V485H528c41.4 0 53.5-9.7 56.1-49.2h36.1v139.3h-36.1c-2.7-37.4-14-49.2-55.5-49.2h-51.5V711h96.2c47.5 0 62.2-15.9 67.5-80.4h41.4v121.3H341.6v-28.5z"/></symbol><symbol viewBox="0 0 1024 1024" id="facebook"><title>facebook</title><path d="M702.556 130v143.438h-95.39c-26.34 0-47.694 21.406-47.694 47.812v95.625h143.084v143.438H559.472V895H416.39V560.312H321V416.875h95.39v-119.53C416.39 204.586 491.27 130 583.32 130h119.236z"/></symbol><symbol viewBox="0 0 1024 1024" id="film"><title>Film</title><path d="M768 128v85.333h-85.333V128H341.333v85.333H256V128h-85.333v768H256v-85.333h85.333V896h341.334v-85.333H768V896h85.333V128H768zM341.333 725.333H256V640h85.333v85.333zm0-170.666H256v-85.334h85.333v85.334zm0-170.667H256v-85.333h85.333V384zM768 725.333h-85.333V640H768v85.333zm0-170.666h-85.333v-85.334H768v85.334zM768 384h-85.333v-85.333H768V384z"/></symbol><symbol viewBox="0 0 1024 1024" id="googleplus"><title>googleplus</title><path d="M336.168 468.143V574.6h177.81c-8.89 44.357-53.343 133.07-177.81 133.07-106.686 0-191.146-88.713-191.146-195.17s84.46-195.17 191.146-195.17c62.233 0 102.24 26.613 124.467 48.79l84.46-79.84C491.752 233.05 420.628 202 336.168 202 162.803 202 25 339.507 25 512.5S162.803 823 336.168 823C513.978 823 634 698.8 634 521.37c0-22.177 0-35.484-4.445-53.227H336.168zM1000 467.667h-88.667V379h-88.666v88.667H734v88.666h88.667V645h88.666v-88.667H1000v-88.666z"/></symbol><symbol viewBox="0 0 1024 1024" id="hamburger"><title>menu</title><path d="M128 256v85.333h768V256H128zM896 554.667v-85.334H128v85.334h768zM128 768h768v-85.333H128V768z"/></symbol><symbol viewBox="0 0 1024 1024" id="headset"><title>headset</title><path d="M512 107c-212.053 0-384 171.947-384 384v298.667c0 70.826 57.173 128 128 128h128V576.333H213.333V491c0-165.12 133.547-298.667 298.667-298.667 165.12 0 298.667 133.547 298.667 298.667v85.333H640v341.334h128c70.827 0 128-57.174 128-128V491c0-212.053-171.947-384-384-384z"/></symbol><symbol viewBox="0 0 1024 1024" id="home"><title>home</title><path d="M426.667 874.333v-256h170.666v256h213.334V533h128L512 149 85.333 533h128v341.333h213.334z"/></symbol><symbol viewBox="0 0 1024 1024" id="instagram"><title>instagram</title><path d="M803.2 148H220.8a72.548 72.548 0 0 0-72.8 72.8v582.4c0 40.206 32.594 72.8 72.8 72.8h582.4c40.206 0 72.8-32.594 72.8-72.8V220.8c0-40.404-32.76-72.8-72.8-72.8m0 163.8c0 10.052-8.148 18.2-18.2 18.2h-72.8c-10.052 0-18.2-8.148-18.2-18.2V239c0-10.052 8.148-18.2 18.2-18.2H785c10.052 0 18.2 8.148 18.2 18.2v72.8M239 803.2c-10.052 0-18.2-8.148-18.2-18.2V475.6h76.076c-2.184 11.648-3.276 24.024-3.276 36.4 0 120.62 97.78 218.4 218.4 218.4S730.4 632.62 730.4 512c0-12.376-1.456-24.752-3.276-36.4H803.2V785c0 10.052-8.148 18.2-18.2 18.2H239m273-436.8c80.413 0 145.6 65.187 145.6 145.6S592.413 657.6 512 657.6 366.4 592.413 366.4 512 431.587 366.4 512 366.4"/></symbol><symbol viewBox="0 0 1024 1024" id="left"><title>left</title><path d="M657.493 316.16L597.333 256l-256 256 256 256 60.16-60.16L462.08 512l195.413-195.84z"/></symbol><symbol viewBox="0 0 1024 1024" id="linkedin"><title>linkedin</title><path d="M235 156c43.63 0 79 35.37 79 79s-35.37 79-79 79-79-35.37-79-79 35.37-79 79-79zM314 868H156V395h158v473zM868 868H710.333V601.937c0-41.78-46.906-76.468-88.687-76.468-41.782 0-68.98 34.686-68.98 76.467V868H395V395h157.667v78.833c26.015-42.175 93.023-69.373 137.958-69.373C789.167 404.46 868 484.87 868 582.23V868z"/></symbol><symbol viewBox="0 0 1024 1024" id="magnifier"><title>magnifier</title><path d="M672.333 608.333h-33.706l-11.947-11.52c41.813-48.64 66.987-111.786 66.987-180.48C693.667 263.16 569.507 139 416.333 139 263.16 139 139 263.16 139 416.333c0 153.174 124.16 277.334 277.333 277.334 68.694 0 131.84-25.174 180.48-66.987l11.52 11.947v33.706L821.667 885.24l63.573-63.573-212.907-213.334zm-256 0c-106.24 0-192-85.76-192-192s85.76-192 192-192 192 85.76 192 192-85.76 192-192 192z"/></symbol><symbol viewBox="0 0 1024 1024" id="mail"><title>mail</title><path d="M822.4 357.295L512 551.415l-310.4-194.12v-77.648L512 473.767l310.4-194.12v77.648zm0-155.295H201.6c-43.068 0-77.6 34.553-77.6 77.647v465.885c0 42.884 34.743 77.648 77.6 77.648h620.8c42.857 0 77.6-34.764 77.6-77.648V279.647C900 236.553 865.08 202 822.4 202z"/></symbol><symbol viewBox="0 0 1024 1024" id="minus"><title>minus</title><path d="M810.667 554.667H213.333v-85.334h597.334v85.334z"/></symbol><symbol viewBox="0 0 1024 1024" id="plus"><title>plus</title><path d="M810.667 554.667h-256v256h-85.334v-256h-256v-85.334h256v-256h85.334v256h256v85.334z"/></symbol><symbol viewBox="0 0 1024 1024" id="print"><title>print</title><path d="M745.6 162H279.4v155.556h466.2V162zm38.85 350c-21.456 0-38.85-17.41-38.85-38.89 0-21.477 17.394-38.888 38.85-38.888 21.456 0 38.85 17.41 38.85 38.89 0 21.477-17.394 38.888-38.85 38.888zM667.9 784.222H357.1V589.778h310.8v194.444zm116.55-427.778h-543.9c-64.37 0-116.55 52.234-116.55 116.667v233.334h155.4V862h466.2V706.444H901V473.11c0-64.432-52.18-116.666-116.55-116.666z"/></symbol><symbol viewBox="0 0 1024 1024" id="radio"><title>radio</title><path d="M558.833 356.326H222.006C166.776 356.326 122 401.1 122 456.334v331.58c0 55.23 44.774 100.008 100.006 100.008h580.988c55.23 0 100.006-44.775 100.006-100.008v-331.58c0-55.23-44.774-100.008-100.006-100.008H741.4l-7.89-3.276-486.312-201.89-32.325-13.42-26.84 64.65 32.326 13.42 338.473 140.516zM196.52 460.902h642.606v128.784H196.52V460.902zM771.38 798.84c35.81 0 64.84-29.047 64.84-64.877s-29.03-64.876-64.84-64.876-64.842 29.046-64.842 64.876c0 35.83 29.03 64.876 64.842 64.876zm-188.718 0c35.81 0 64.842-29.047 64.842-64.877s-29.03-64.876-64.842-64.876c-35.81 0-64.84 29.046-64.84 64.876 0 35.83 29.03 64.876 64.84 64.876z" fill-rule="evenodd"/></symbol><symbol viewBox="0 0 1024 1024" id="right"><title>right</title><path d="M426.667 256l-60.16 60.16L561.92 512 366.507 707.84l60.16 60.16 256-256-256-256z"/></symbol><symbol viewBox="0 0 1024 1024" id="rss"><title>rss</title><path d="M184 385v98.2c196.403 0 356.8 160.397 356.8 356.8H639c0-252.05-202.95-455-455-455z"/><path d="M184 184v98.25c307.85 0 556.75 248.9 556.75 556.75H839c0-361.747-293.253-655-655-655zM276 840c-49.286 0-92-42.714-92-92s42.714-92 92-92 92 42.714 92 92-39.43 92-92 92z"/></symbol><symbol viewBox="0 0 1024 1024" id="share"><title>share</title><path d="M750.667 676.1c-30.23 0-57.28 11.913-77.965 30.576l-283.615-164.79c1.99-9.134 3.58-18.268 3.58-27.798 0-9.53-1.59-18.663-3.58-27.796L669.52 323.09c21.48 19.853 49.722 32.163 81.147 32.163 66.03 0 119.333-53.21 119.333-119.126C870 170.21 816.698 117 750.667 117c-66.03 0-119.334 53.21-119.334 119.127 0 9.53 1.59 18.663 3.58 27.796L354.48 427.126c-21.48-19.854-49.722-32.164-81.147-32.164-66.03 0-119.333 53.21-119.333 119.126 0 65.917 53.302 119.127 119.333 119.127 31.425 0 59.667-12.31 81.147-32.164l283.218 165.19c-1.99 8.338-3.182 17.074-3.182 25.81 0 63.93 52.108 115.95 116.15 115.95 64.043 0 116.152-52.02 116.152-115.95s-52.11-115.95-116.15-115.95z"/></symbol><symbol viewBox="0 0 1024 1024" id="tumblr"><title>tumblr</title><path d="M709 460.596H560.875v192.787c0 36.086 6.912 54.376 54.313 54.376H709v148.297S658.144 861 605.312 861C474.47 861 412.75 781.908 412.75 692.93V460.595H314V322.184C432.994 312.298 443.363 221.342 452.25 164h108.625v148.298H709v148.298z"/></symbol><symbol viewBox="0 0 1024 1024" id="twitter"><title>twitter</title><path d="M845 304.647c-24.477 11.138-50.86 18.458-78.198 21.958 27.973-16.866 49.59-43.598 59.76-75.74-26.383 15.912-55.627 27.05-86.462 33.415C714.988 256.912 679.704 241 639.65 241c-74.7 0-135.733 61.1-135.733 136.523 0 10.82 1.272 21.322 3.497 31.187-113.164-5.728-213.932-60.146-281.004-142.57-11.76 20.05-18.437 43.6-18.437 68.42 0 47.418 23.84 89.425 60.715 113.293-22.57 0-43.55-6.365-61.986-15.912v.956c0 66.193 47.046 121.566 109.35 133.977-11.444 3.182-23.523 4.773-35.92 4.773-8.583 0-17.166-.954-25.43-2.545 17.165 53.782 67.07 93.88 127.15 94.835-46.41 36.915-105.217 58.555-169.428 58.555A276.96 276.96 0 0 1 180 720.58C240.397 759.406 312.237 782 389.163 782c250.488 0 388.13-208.126 388.13-388.565 0-6.047 0-11.775-.32-17.82 26.703-19.096 49.59-43.28 68.027-70.968z"/></symbol><symbol viewBox="0 0 1024 1024" id="up"><title>up</title><path d="M512 341.333l-256 256 60.16 60.16L512 462.08l195.84 195.413 60.16-60.16-256-256z"/></symbol><symbol viewBox="0 0 1024 1024" id="user"><title>Person</title><path d="M512 512c94.3 0 170.7-76.4 170.7-170.7S606.3 170.7 512 170.7 341.3 247 341.3 341.3 417.7 512 512 512zm0 85.3c-113.9 0-341.3 57.2-341.3 170.7v85.3h682.7V768c-.1-113.5-227.5-170.7-341.4-170.7z"/></symbol><symbol viewBox="0 0 1024 1024" id="video"><title>Video</title><path d="M426.7 704l256-192-256-192v384zM512 85.3C276.5 85.3 85.3 276.5 85.3 512S276.5 938.7 512 938.7 938.7 747.5 938.7 512 747.5 85.3 512 85.3zm0 768c-188.2 0-341.3-153.2-341.3-341.3S323.8 170.7 512 170.7 853.3 323.8 853.3 512 700.2 853.3 512 853.3z"/></symbol><symbol viewBox="0 0 1024 1024" id="whatsapp"><title>whatsapp</title><path d="M708.175 592.948c10.325 5.37 16.933 8.26 18.998 12.39 2.478 4.543 1.652 25.193-8.673 48.734-8.26 23.128-51.212 45.43-70.21 46.256-18.998.826-19.41 14.868-122.248-30.15C423.205 625.163 361.255 515.305 356.3 508.284c-4.957-7.02-39.65-56.994-37.997-107.793 2.065-50.386 28.497-74.34 39.235-84.252C367.45 305.5 378.6 304.26 385.622 305.5h19.41c6.196 0 14.87-2.478 22.716 18.585l28.497 77.23c2.478 5.37 4.13 11.565.413 18.173l-11.15 16.933-16.108 17.347c-4.956 4.956-10.738 10.325-4.956 20.65 4.956 10.738 25.606 45.017 54.516 73.514 37.583 36.345 70.623 48.322 80.535 53.69 9.912 5.783 16.107 4.957 22.302-1.65l33.453-38.823c7.847-10.325 14.455-7.847 23.954-4.543l68.97 36.344zM512 99a413 413 0 0 1 413 413c0 228.094-184.906 413-413 413-81.36 0-156.94-23.54-220.955-64.015L99 925l64.015-192.045C122.54 668.94 99 593.36 99 512 99 283.906 283.906 99 512 99zm0 82.6c-182.475 0-330.4 147.925-330.4 330.4 0 71.036 22.302 136.703 60.298 190.393L202.25 821.75l119.357-39.648C375.297 820.098 440.964 842.4 512 842.4c182.475 0 330.4-147.925 330.4-330.4 0-182.475-147.925-330.4-330.4-330.4z"/></symbol><symbol viewBox="0 0 40 40" id="worldif"><title>worldif</title><path d="M8 9h2.8v23H8V9zm3.414 23V9h2.798v23h-2.798zM17.22 9h15.775v2.302H20.018V32h-2.8V9zM31.87 21.143H20.638V11.91H33v2.27h-9.568v4.665h8.435v2.298h.005zM20.632 32V21.752h11.235v2.268h-8.435V32h-2.8z"/></symbol><symbol viewBox="0 0 1024 1024" id="youtube"><title>youtube</title><path d="M433.4 688.28V336.72L667.7 512.5 433.4 688.28zm390.5-472.655C800.47 207.812 655.985 200 511.5 200c-144.485 0-288.97 7.422-312.4 14.844C138.182 235.156 121 371.874 121 512.5c0 140.234 17.182 277.344 78.1 297.266C222.53 817.578 367.015 825 511.5 825c144.485 0 288.97-7.422 312.4-15.234C884.818 789.844 902 652.734 902 512.5c0-140.625-17.182-276.953-78.1-296.875z"/></symbol></svg>